<?xml version="1.0" encoding="utf-8"?>
<svg width="12" height="12" viewBox = "0 0 500 500" xmlns = "http://www.w3.org/2000/svg" xmlns:bx = "https://boxy-svg.com">
	<rect width = "500" height = "500" style = "fill: rgb(255, 255, 255);" />
	<g transform = "matrix(0.25, 0, 0, -0.25, 0, 500)" fill = "white" style = "" bx:origin = "0.503022 0.502853">
		<path fill = "#5865f2"
		      d = "M0 1000 l0 -1000 1000 0 1000 0 0 1000 0 1000 -1000 0 -1000 0 0 -1000z m1125 506 c9 -12 12 -35 8 -71 l-6 -53 49 -26 c27 -15 57 -32 66 -38 13 -10 26 -7 66 15 27 15 57 27 65 27 21 0 62 -52 98 -121 42 -85 40 -101 -23 -137 l-53 -29 1 -74 1 -74 48 -26 c26 -15 51 -33 56 -40 16 -29 -77 -201 -118 -216 -9 -4 -39 6 -71 22 -43 23 -57 26 -71 17 -9 -7 -37 -23 -63 -37 l-47 -25 -3 -67 -3 -67 -35 -9 c-19 -5 -72 -7 -118 -5 -102 4 -115 15 -110 95 l3 52 -60 37 -60 36 -50 -26 c-28 -14 -58 -26 -67 -26 -35 0 -128 147 -128 203 0 20 11 31 51 54 l52 29 1 73 1 74 -52 29 c-64 36 -66 52 -24 137 36 71 77 121 99 121 9 0 39 -12 67 -26 l50 -26 57 34 57 33 1 56 c0 90 15 99 159 95 76 -2 96 -5 106 -20z" />
		<path d = "M919 1138 c-104 -59 -105 -217 -3 -275 79 -46 168 -23 222 57 20 29 23 44 20 88 -10 122 -135 191 -239 130z" style = "fill: rgb(88, 101, 242);" />
	</g>
</svg>
