<?xml version="1.0" encoding="utf-8"?>
<svg viewBox="0 0 24 21" xmlns="http://www.w3.org/2000/svg">
  <path fill="#f0bd59" d="M 18.322 10.787 L 16.052 10.787 L 16.052 13.06 L 18.322 13.06 L 18.322 10.787 Z M 13.779 10.787 L 11.51 10.787 L 11.51 13.06 L 13.779 13.06 L 13.779 10.787 Z M 9.238 10.787 L 6.966 10.787 L 6.966 13.06 L 9.238 13.06 L 9.238 10.787 Z M 21.729 21.008 L 3.56 21.008 C 2.305 21.008 1.289 19.992 1.289 18.737 L 1.289 4.046 L 0 -0.008 L 5.831 2.839 L 21.729 2.839 C 22.984 2.839 24 3.855 24 5.11 L 24 18.737 C 24 19.998 22.978 21.008 21.729 21.008 Z" style="" transform="matrix(-1, 0, 0, -1, 24, 20.999998)"/>
</svg>
