<?xml version="1.0" encoding="utf-8"?>
<svg viewBox="0 0 200 200" xmlns="http://www.w3.org/2000/svg" xmlns:bx="https://boxy-svg.com">
  <g transform="matrix(0.598446, 0, 0, 0.624978, -50.867897, -74.990547)">
    <rect fill="#f0bd59" x="85" y="119.989" width="150" height="150" rx="30" ry="30"/>
    <rect fill="#f0bd59" x="269.199" y="290" width="150" height="150" rx="30" ry="30"/>
    <g>
      <path fill="#f0bd59" d="M 160.001 190 C 173.808 190 185.002 198.955 185.002 210.001 L 185.002 330.005 C 185.002 341.051 173.808 350.006 160.001 350.006 C 146.194 350.006 135 341.051 135 330.005 L 135 210.001 C 135 198.955 146.194 190 160.001 190 Z" style="" bx:origin="0.5 0.5"/>
      <path fill="#f0bd59" d="M 195.954 340 L 321.279 340 C 332.815 340 342.166 351.176 342.166 364.961 C 342.166 378.746 332.815 389.922 321.279 389.922 L 195.954 389.922 C 184.419 389.922 175.067 378.746 175.067 364.961 C 175.067 351.176 184.419 340 195.954 340 Z"/>
    </g>
    <path fill="#f0bd59" transform="matrix(-0.931044, 1.149591, -0.24565, -0.294204, 898.603149, -186.598495)" d="M 595.072 535.1 A 96.5 96.5 0 0 1 595.072 649.9 A 227.877 227.877 0 0 0 595.072 535.1 Z" bx:shape="crescent 517.5 592.5 96.5 73 0.94 1@bc68fe1a"/>
    <path fill="#f0bd59" transform="matrix(-0.230878, 0.297725, -0.352274, -0.384189, 503.575592, 415.455627)" d="M 514.974 496.033 A 96.5 96.5 0 1 1 514.974 688.967 A 366.761 366.761 0 0 1 514.974 496.033 Z" bx:shape="crescent 517.5 592.5 96.5 183 0.42 1@38e0bdef"/>
    <path fill="#f0bd59" transform="matrix(0.141581, 2.035896, -0.794192, -0.084123, 573.325256, -810.812927)" d="M 611.527 570.792 A 96.5 96.5 0 0 1 611.527 614.208 A 170.602 170.602 0 0 1 611.527 570.792 Z" bx:shape="crescent 517.5 592.5 96.5 26 0.98 1@00371914"/>
  </g>
</svg>
