<?xml version="1.0" encoding="utf-8"?>
<svg width="40" height="40" viewBox="0 0 500 500" xmlns="http://www.w3.org/2000/svg">
  <path d="M 310.452 63.221 C 306.904 57.546 299.469 56.641 269.445 55.856 C 240.975 55.062 225.567 55.495 217.227 60.537 C 208.935 65.323 207.705 74.576 207.712 92.303 L 207.305 115.146 L 184.156 128.548 L 161.03 142.343 L 140.648 131.746 C 129.609 126.223 118.006 121.582 114.66 121.582 C 110.678 121.582 104.905 126.19 98.06 134.557 C 91.178 142.961 83.623 154.833 76.526 168.84 C 68.234 185.612 64.355 195.245 65.646 202.502 C 66.765 209.699 72.956 214.436 85.55 221.51 L 106.752 233.338 L 106.346 263.347 L 105.942 292.941 L 84.76 304.75 C 69.05 313.762 65.169 317.604 65.169 325.104 C 65.169 335.938 74.231 355.714 85.133 372.971 C 96.014 390.22 108.182 404.29 114.66 404.29 C 118.006 404.29 129.616 399.644 140.653 394.121 L 161.031 383.528 L 161.22 383.643 L 185.371 398.134 L 209.73 413.155 L 209.689 413.859 L 208.501 434.46 C 207.509 450.208 208.133 458.686 213.984 463.573 C 219.78 468.66 230.782 470.024 250.921 470.811 C 269.087 471.603 289.899 470.828 297.299 468.869 C 297.286 468.885 308.523 467.661 310.304 465.523 C 312.726 461.166 312.67 412.665 312.67 412.665 L 331.877 402.451 C 342.156 396.916 353.217 390.589 356.726 387.861 L 356.745 387.845 L 356.76 387.835 C 362.746 384.19 368.874 385.372 386.044 394.526 C 398.629 400.822 410.057 404.71 413.21 403.169 C 421.052 400.398 433.981 382.177 444.387 363.039 C 454.795 343.907 462.36 324.733 459.322 319.401 C 457.449 316.755 447.805 309.864 437.57 303.96 L 417.97 293.345 L 417.16 233.333 L 438.764 221.509 C 451.155 214.438 457.242 209.705 458.316 202.509 C 459.56 195.249 455.678 185.608 447.387 168.84 C 440.287 155.226 432.737 143.354 425.895 134.85 C 419.091 126.368 413.423 121.582 409.648 121.582 C 406.701 121.582 395.105 126.216 384.484 132.127 C 376.532 136.496 371.133 139.032 367.099 139.966 C 362.903 140.868 359.842 140.043 357.078 137.987 C 353.552 135.635 341.756 128.956 331.072 123.021 L 310.972 112.353 L 313.439 90.564 C 315.023 76.454 313.895 67.699 310.452 63.221 Z M 325.146 260.162 C 326.333 277.582 325.146 283.522 317.225 295.004 C 295.844 326.683 260.607 335.791 229.326 317.574 C 188.935 294.609 189.332 232.049 230.514 208.691 C 271.692 184.536 321.186 211.857 325.146 260.162 Z" fill="#29285a"/>
  <path d="M 291.411 37.534 C 287.787 31.732 280.195 30.805 249.518 30.003 C 220.429 29.192 204.69 29.633 196.169 34.787 C 187.697 39.677 186.438 49.132 186.445 67.244 L 186.029 90.581 L 162.38 104.273 L 138.749 118.367 L 117.927 107.54 C 106.65 101.899 94.793 97.156 91.376 97.156 C 87.305 97.156 81.406 101.861 74.415 110.413 C 67.379 119.003 59.663 131.13 52.411 145.438 C 43.939 162.579 39.977 172.414 41.298 179.833 C 42.442 187.187 48.764 192.026 61.631 199.254 L 83.296 211.337 L 82.882 241.998 L 82.466 272.231 L 60.823 284.302 C 44.775 293.506 40.809 297.428 40.809 305.09 C 40.809 316.165 50.066 336.37 61.204 353.998 C 72.325 371.622 84.755 385.998 91.376 385.998 C 94.793 385.998 106.657 381.252 117.932 375.611 L 138.749 364.785 L 138.944 364.902 L 163.619 379.707 L 188.507 395.053 L 188.466 395.778 L 187.252 416.82 C 186.238 432.911 186.877 441.573 192.85 446.568 C 198.773 451.762 210.016 453.156 230.592 453.962 C 249.152 454.771 270.418 453.979 277.973 451.978 C 277.656 452.358 287.337 449.87 288.753 448.17 C 291.025 445.141 293.681 394.554 293.679 394.555 L 313.304 384.118 C 323.807 378.464 335.108 372 338.691 369.211 L 338.711 369.195 L 338.728 369.185 C 344.843 365.461 351.106 366.67 368.645 376.023 C 381.505 382.456 393.18 386.428 396.402 384.854 C 404.412 382.021 417.624 363.408 428.254 343.853 C 438.888 324.305 446.618 304.714 443.516 299.266 C 441.598 296.564 431.748 289.525 421.289 283.493 L 401.266 272.645 L 400.436 211.332 L 422.512 199.253 C 435.169 192.028 441.39 187.193 442.485 179.839 C 443.755 172.42 439.791 162.576 431.321 145.438 C 424.067 131.532 416.349 119.403 409.36 110.711 C 402.413 102.048 396.618 97.156 392.761 97.156 C 389.751 97.156 377.903 101.893 367.05 107.928 C 358.927 112.394 353.409 114.989 349.287 115.938 C 345.002 116.863 341.876 116.018 339.053 113.918 C 335.45 111.512 323.396 104.69 312.482 98.627 L 291.945 87.728 L 294.465 65.465 C 296.083 51.048 294.928 42.104 291.411 37.534 Z M 306.425 238.743 C 306.924 253.509 305.775 261.245 298.335 274.342 C 279.046 308.293 240.485 316.01 208.528 297.402 C 167.264 273.938 167.668 210.02 209.74 186.152 C 251.814 161.476 304.762 189.251 306.425 238.743 Z" fill="#5865f2"/>
</svg>
